<svg width="512" height="512" viewBox="0 0 512 512" fill="none" xmlns="http://www.w3.org/2000/svg">
<path d="M256 42.6667C138.454 42.6667 42.667 138.453 42.667 256C42.667 373.547 138.454 469.333 256 469.333C373.547 469.333 469.334 373.547 469.334 256C469.334 138.453 373.547 42.6667 256 42.6667ZM357.974 206.933L237.014 327.893C234.027 330.88 229.974 332.587 225.707 332.587C221.44 332.587 217.387 330.88 214.4 327.893L154.027 267.52C147.84 261.333 147.84 251.093 154.027 244.907C160.214 238.72 170.454 238.72 176.64 244.907L225.707 293.973L335.36 184.32C341.547 178.133 351.787 178.133 357.974 184.32C364.16 190.507 364.16 200.533 357.974 206.933Z" fill="#12AF78"/>
</svg>
