<svg width="256" height="48" viewBox="0 0 256 48" fill="none" xmlns="http://www.w3.org/2000/svg">
<path fill-rule="evenodd" clip-rule="evenodd" d="M32 0H0V32H16V48H48V16H32V0ZM32 16H16V32H32V16Z" fill="#02BBDD"/>
<path d="M56 47.5007V16.4993H66.0946C69.3625 16.4993 72.2012 17.1651 74.6106 18.4967C77.0477 19.8006 78.9309 21.6177 80.2602 23.948C81.5896 26.2505 82.2542 28.9276 82.2542 31.9792C82.2542 35.003 81.5896 37.694 80.2602 40.052C78.9309 42.3823 77.0477 44.2133 74.6106 45.5449C72.2012 46.8487 69.3625 47.5007 66.0946 47.5007H56ZM61.6496 42.5072H66.2192C68.324 42.5072 70.138 42.0772 71.6612 41.2172C73.212 40.3294 74.4167 39.1088 75.2753 37.5553C76.1338 35.974 76.5631 34.1153 76.5631 31.9792C76.5631 29.8153 76.1338 27.9567 75.2753 26.4031C74.4167 24.8496 73.212 23.6428 71.6612 22.7828C70.138 21.9228 68.324 21.4928 66.2192 21.4928H61.6496V42.5072Z" fill="#131414"/>
<path d="M94.3526 48C92.6078 48 91.0846 47.6116 89.783 46.8349C88.509 46.0581 87.5259 44.9762 86.8335 43.5891C86.1689 42.202 85.8365 40.5791 85.8365 38.7204V24.8635H91.2785V38.2627C91.2785 39.2059 91.4585 40.0381 91.8185 40.7594C92.2062 41.453 92.7463 42.0078 93.4386 42.4239C94.1587 42.8123 94.9618 43.0065 95.848 43.0065C96.7343 43.0065 97.5236 42.8123 98.2159 42.4239C98.9083 42.0078 99.4483 41.4391 99.836 40.7178C100.224 39.9965 100.418 39.1365 100.418 38.1378V24.8635H105.86V47.5007H100.708V43.0481L101.165 43.8388C100.639 45.2258 99.7668 46.2661 98.5482 46.9597C97.3574 47.6532 95.9588 48 94.3526 48Z" fill="#131414"/>
<path d="M110.918 47.5007V24.8635H116.36V47.5007H110.918ZM110.918 22.3251V16.4993H116.36V22.3251H110.918Z" fill="#131414"/>
<path d="M131.687 47.7503C129.139 47.7503 127.159 47.0568 125.747 45.6697C124.362 44.2549 123.67 42.2714 123.67 39.7191V29.7321H119.765V24.8635H120.18C121.288 24.8635 122.146 24.5722 122.756 23.9896C123.365 23.407 123.67 22.5609 123.67 21.4512V19.7035H129.111V24.8635H134.304V29.7321H129.111V39.4278C129.111 40.1769 129.236 40.8149 129.485 41.342C129.762 41.8691 130.178 42.2713 130.732 42.5488C131.313 42.8262 132.047 42.9649 132.933 42.9649C133.127 42.9649 133.349 42.951 133.598 42.9233C133.875 42.8955 134.138 42.8678 134.387 42.8401V47.5007C133.999 47.5561 133.556 47.6116 133.058 47.6671C132.559 47.7226 132.102 47.7503 131.687 47.7503Z" fill="#131414"/>
<path d="M139.002 47.5007V16.4993H144.652V32.645L143.115 32.104L156.283 16.4993H163.387L151.049 31.1469L151.381 27.1521L163.761 47.5007H157.114L148.806 33.8518L144.652 38.8036V47.5007H139.002Z" fill="#131414"/>
<path d="M166.74 47.5007V24.8635H172.182V47.5007H166.74ZM166.74 22.3251V16.4993H172.182V22.3251H166.74Z" fill="#131414"/>
<path d="M187.716 48C185.528 48 183.576 47.4868 181.859 46.4603C180.142 45.4062 178.785 43.9775 177.788 42.1743C176.791 40.371 176.292 38.3736 176.292 36.1821C176.292 33.9627 176.791 31.9653 177.788 30.1899C178.785 28.4144 180.142 26.9996 181.859 25.9454C183.604 24.8912 185.542 24.3641 187.675 24.3641C189.392 24.3641 190.915 24.7109 192.244 25.4044C193.601 26.0702 194.667 27.0134 195.443 28.2341L194.612 29.3576V16H200.054V47.5007H194.903V43.1313L195.484 44.2133C194.709 45.4339 193.629 46.3771 192.244 47.0429C190.859 47.681 189.35 48 187.716 48ZM188.298 43.0065C189.544 43.0065 190.638 42.7152 191.579 42.1326C192.521 41.5501 193.255 40.7456 193.781 39.7191C194.335 38.6927 194.612 37.5137 194.612 36.1821C194.612 34.8782 194.335 33.713 193.781 32.6866C193.255 31.6324 192.521 30.814 191.579 30.2315C190.638 29.6489 189.544 29.3576 188.298 29.3576C187.079 29.3576 185.985 29.6628 185.016 30.2731C184.047 30.8557 183.285 31.6602 182.731 32.6866C182.205 33.6853 181.942 34.8505 181.942 36.1821C181.942 37.5137 182.205 38.6927 182.731 39.7191C183.285 40.7456 184.047 41.5501 185.016 42.1326C185.985 42.7152 187.079 43.0065 188.298 43.0065Z" fill="#131414"/>
<path d="M215.627 48C213.439 48 211.487 47.4868 209.769 46.4603C208.052 45.4062 206.695 43.9775 205.698 42.1743C204.701 40.371 204.203 38.3736 204.203 36.1821C204.203 33.9627 204.701 31.9653 205.698 30.1899C206.695 28.4144 208.052 26.9996 209.769 25.9454C211.514 24.8912 213.453 24.3641 215.585 24.3641C217.302 24.3641 218.826 24.7109 220.155 25.4044C221.512 26.0702 222.578 27.0134 223.354 28.2341L222.523 29.3576V16H227.965V47.5007H222.814V43.1313L223.395 44.2133C222.62 45.4339 221.54 46.3771 220.155 47.0429C218.77 47.681 217.261 48 215.627 48ZM216.208 43.0065C217.455 43.0065 218.549 42.7152 219.49 42.1326C220.432 41.5501 221.166 40.7456 221.692 39.7191C222.246 38.6927 222.523 37.5137 222.523 36.1821C222.523 34.8782 222.246 33.713 221.692 32.6866C221.166 31.6324 220.432 30.814 219.49 30.2315C218.549 29.6489 217.455 29.3576 216.208 29.3576C214.99 29.3576 213.896 29.6628 212.927 30.2731C211.957 30.8557 211.196 31.6602 210.642 32.6866C210.116 33.6853 209.853 34.8505 209.853 36.1821C209.853 37.5137 210.116 38.6927 210.642 39.7191C211.196 40.7456 211.957 41.5501 212.927 42.1326C213.896 42.7152 214.99 43.0065 216.208 43.0065Z" fill="#131414"/>
<path d="M244.078 48C241.862 48 239.84 47.4868 238.013 46.4603C236.212 45.4339 234.772 44.0329 233.692 42.2575C232.64 40.482 232.114 38.4569 232.114 36.1821C232.114 33.9072 232.64 31.8821 233.692 30.1066C234.772 28.3312 236.212 26.9302 238.013 25.9038C239.813 24.8773 241.834 24.3641 244.078 24.3641C246.293 24.3641 248.301 24.8773 250.101 25.9038C251.901 26.9302 253.327 28.3312 254.38 30.1066C255.46 31.8544 256 33.8795 256 36.1821C256 38.4569 255.46 40.482 254.38 42.2575C253.3 44.0329 251.86 45.4339 250.06 46.4603C248.259 47.4868 246.265 48 244.078 48ZM244.078 43.0065C245.296 43.0065 246.362 42.7152 247.276 42.1326C248.218 41.5501 248.952 40.7456 249.478 39.7191C250.032 38.6649 250.309 37.4859 250.309 36.1821C250.309 34.8505 250.032 33.6853 249.478 32.6866C248.952 31.6602 248.218 30.8557 247.276 30.2731C246.362 29.6628 245.296 29.3576 244.078 29.3576C242.831 29.3576 241.737 29.6628 240.796 30.2731C239.854 30.8557 239.106 31.6602 238.553 32.6866C238.026 33.6853 237.763 34.8505 237.763 36.1821C237.763 37.4859 238.026 38.6649 238.553 39.7191C239.106 40.7456 239.854 41.5501 240.796 42.1326C241.737 42.7152 242.831 43.0065 244.078 43.0065Z" fill="#131414"/>
</svg>
