<svg width="132" height="24" viewBox="0 0 132 24" fill="none" xmlns="http://www.w3.org/2000/svg">
<path fill-rule="evenodd" clip-rule="evenodd" d="M16 0H0V16H7.99999V24H24V8.00002H16V0ZM16 8.00002H7.99999V16H16V8.00002Z" fill="#02BBDD"/>
<path d="M32 23.7503V8.24967H37.0473C38.6813 8.24967 40.1006 8.58257 41.3053 9.24837C42.5239 9.9003 43.4655 10.8088 44.1301 11.974C44.7948 13.1253 45.1271 14.4638 45.1271 15.9896C45.1271 17.5015 44.7948 18.847 44.1301 20.026C43.4655 21.1912 42.5239 22.1066 41.3053 22.7724C40.1006 23.4244 38.6813 23.7503 37.0473 23.7503H32ZM34.8248 21.2536H37.1096C38.162 21.2536 39.069 21.0386 39.8306 20.6086C40.606 20.1647 41.2084 19.5544 41.6376 18.7776C42.0669 17.987 42.2815 17.0577 42.2815 15.9896C42.2815 14.9077 42.0669 13.9783 41.6376 13.2016C41.2084 12.4248 40.606 11.8214 39.8306 11.3914C39.069 10.9614 38.162 10.7464 37.1096 10.7464H34.8248V21.2536Z" fill="#131414"/>
<path d="M51.1763 24C50.3039 24 49.5423 23.8058 48.8915 23.4174C48.2545 23.029 47.7629 22.4881 47.4168 21.7945C47.0844 21.101 46.9183 20.2896 46.9183 19.3602V12.4317H49.6392V19.1313C49.6392 19.6029 49.7292 20.0191 49.9093 20.3797C50.1031 20.7265 50.3731 21.0039 50.7193 21.212C51.0793 21.4062 51.4809 21.5033 51.924 21.5033C52.3671 21.5033 52.7618 21.4062 53.108 21.212C53.4541 21.0039 53.7242 20.7195 53.918 20.3589C54.1119 19.9983 54.2088 19.5683 54.2088 19.0689V12.4317H56.9298V23.7503H54.3542V21.5241L54.5827 21.9194C54.3196 22.6129 53.8834 23.1331 53.2741 23.4798C52.6787 23.8266 51.9794 24 51.1763 24Z" fill="#131414"/>
<path d="M59.4591 23.7503V12.4317H62.1801V23.7503H59.4591ZM59.4591 11.1625V8.24967H62.1801V11.1625H59.4591Z" fill="#131414"/>
<path d="M69.8435 23.8752C68.5696 23.8752 67.5795 23.5284 66.8733 22.8349C66.1809 22.1274 65.8348 21.1357 65.8348 19.8596V14.8661H63.8823V12.4317H64.09C64.6439 12.4317 65.0732 12.2861 65.3778 11.9948C65.6824 11.7035 65.8348 11.2805 65.8348 10.7256V9.85176H68.5557V12.4317H71.1521V14.8661H68.5557V19.7139C68.5557 20.0884 68.618 20.4075 68.7427 20.671C68.8811 20.9345 69.0888 21.1357 69.3658 21.2744C69.6566 21.4131 70.0235 21.4824 70.4666 21.4824C70.5636 21.4824 70.6743 21.4755 70.799 21.4616C70.9374 21.4478 71.069 21.4339 71.1936 21.42V23.7503C70.9997 23.7781 70.7782 23.8058 70.5289 23.8335C70.2797 23.8613 70.0512 23.8752 69.8435 23.8752Z" fill="#131414"/>
<path d="M73.5009 23.7503V8.24967H76.3258V16.3225L75.5573 16.052L82.1416 8.24967H85.6934L79.5245 15.5735L79.6906 13.5761L85.8803 23.7503H82.557L78.4028 16.9259L76.3258 19.4018V23.7503H73.5009Z" fill="#131414"/>
<path d="M87.3698 23.7503V12.4317H90.0908V23.7503H87.3698ZM87.3698 11.1625V8.24967H90.0908V11.1625H87.3698Z" fill="#131414"/>
<path d="M97.8581 24C96.7641 24 95.7879 23.7434 94.9294 23.2302C94.0709 22.7031 93.3924 21.9887 92.8939 21.0871C92.3954 20.1855 92.1461 19.1868 92.1461 18.091C92.1461 16.9814 92.3954 15.9827 92.8939 15.0949C93.3924 14.2072 94.0709 13.4998 94.9294 12.9727C95.8018 12.4456 96.7711 12.1821 97.8373 12.1821C98.6958 12.1821 99.4574 12.3554 100.122 12.7022C100.801 13.0351 101.334 13.5067 101.721 14.117L101.306 14.6788V8H104.027V23.7503H101.451V21.5657L101.742 22.1066C101.354 22.7169 100.814 23.1886 100.122 23.5215C99.4297 23.8405 98.6751 24 97.8581 24ZM98.1489 21.5033C98.772 21.5033 99.3189 21.3576 99.7897 21.0663C100.261 20.775 100.628 20.3728 100.891 19.8596C101.168 19.3463 101.306 18.7568 101.306 18.091C101.306 17.4391 101.168 16.8565 100.891 16.3433C100.628 15.8162 100.261 15.407 99.7897 15.1157C99.3189 14.8244 98.772 14.6788 98.1489 14.6788C97.5396 14.6788 96.9926 14.8314 96.508 15.1365C96.0233 15.4278 95.6425 15.8301 95.3656 16.3433C95.1025 16.8427 94.9709 17.4252 94.9709 18.091C94.9709 18.7568 95.1025 19.3463 95.3656 19.8596C95.6425 20.3728 96.0233 20.775 96.508 21.0663C96.9926 21.3576 97.5396 21.5033 98.1489 21.5033Z" fill="#131414"/>
<path d="M111.813 24C110.719 24 109.743 23.7434 108.885 23.2302C108.026 22.7031 107.348 21.9887 106.849 21.0871C106.351 20.1855 106.101 19.1868 106.101 18.091C106.101 16.9814 106.351 15.9827 106.849 15.0949C107.348 14.2072 108.026 13.4998 108.885 12.9727C109.757 12.4456 110.726 12.1821 111.793 12.1821C112.651 12.1821 113.413 12.3554 114.077 12.7022C114.756 13.0351 115.289 13.5067 115.677 14.117L115.261 14.6788V8H117.982V23.7503H115.407V21.5657L115.698 22.1066C115.31 22.7169 114.77 23.1886 114.077 23.5215C113.385 23.8405 112.63 24 111.813 24ZM112.104 21.5033C112.727 21.5033 113.274 21.3576 113.745 21.0663C114.216 20.775 114.583 20.3728 114.846 19.8596C115.123 19.3463 115.261 18.7568 115.261 18.091C115.261 17.4391 115.123 16.8565 114.846 16.3433C114.583 15.8162 114.216 15.407 113.745 15.1157C113.274 14.8244 112.727 14.6788 112.104 14.6788C111.495 14.6788 110.948 14.8314 110.463 15.1365C109.979 15.4278 109.598 15.8301 109.321 16.3433C109.058 16.8427 108.926 17.4252 108.926 18.091C108.926 18.7568 109.058 19.3463 109.321 19.8596C109.598 20.3728 109.979 20.775 110.463 21.0663C110.948 21.3576 111.495 21.5033 112.104 21.5033Z" fill="#131414"/>
<path d="M126.039 24C124.931 24 123.92 23.7434 123.006 23.2302C122.106 22.7169 121.386 22.0165 120.846 21.1287C120.32 20.241 120.057 19.2284 120.057 18.091C120.057 16.9536 120.32 15.941 120.846 15.0533C121.386 14.1656 122.106 13.4651 123.006 12.9519C123.906 12.4387 124.917 12.1821 126.039 12.1821C127.147 12.1821 128.15 12.4387 129.051 12.9519C129.951 13.4651 130.664 14.1656 131.19 15.0533C131.73 15.9272 132 16.9397 132 18.091C132 19.2284 131.73 20.241 131.19 21.1287C130.65 22.0165 129.93 22.7169 129.03 23.2302C128.13 23.7434 127.133 24 126.039 24ZM126.039 21.5033C126.648 21.5033 127.181 21.3576 127.638 21.0663C128.109 20.775 128.476 20.3728 128.739 19.8596C129.016 19.3325 129.154 18.743 129.154 18.091C129.154 17.4252 129.016 16.8427 128.739 16.3433C128.476 15.8301 128.109 15.4278 127.638 15.1365C127.181 14.8314 126.648 14.6788 126.039 14.6788C125.416 14.6788 124.869 14.8314 124.398 15.1365C123.927 15.4278 123.553 15.8301 123.276 16.3433C123.013 16.8427 122.882 17.4252 122.882 18.091C122.882 18.743 123.013 19.3325 123.276 19.8596C123.553 20.3728 123.927 20.775 124.398 21.0663C124.869 21.3576 125.416 21.5033 126.039 21.5033Z" fill="#131414"/>
</svg>
